<?xml version="1.0" encoding="UTF-8"?>
<svg id="Logo" xmlns="http://www.w3.org/2000/svg" xmlns:xlink="http://www.w3.org/1999/xlink" viewBox="0 0 958.67 967.55">
  <defs>
    <style>
      .cls-1 {
        fill: url(#Degradado_sin_nombre_412-2);
      }

      .cls-1, .cls-2, .cls-3, .cls-4, .cls-5, .cls-6, .cls-7, .cls-8, .cls-9, .cls-10, .cls-11, .cls-12 {
        stroke: #000;
        stroke-miterlimit: 10;
      }

      .cls-2 {
        fill: url(#Degradado_sin_nombre_412-6);
      }

      .cls-3 {
        fill: url(#Degradado_sin_nombre_412-9);
      }

      .cls-4 {
        fill: url(#Degradado_sin_nombre_412-4);
      }

      .cls-5 {
        fill: url(#Degradado_sin_nombre_412-10);
      }

      .cls-6 {
        fill: url(#Degradado_sin_nombre_312);
      }

      .cls-7 {
        fill: url(#Degradado_sin_nombre_412-8);
      }

      .cls-8 {
        fill: url(#Degradado_sin_nombre_412-7);
      }

      .cls-9 {
        fill: url(#Degradado_sin_nombre_412-3);
      }

      .cls-10 {
        fill: url(#Degradado_sin_nombre_412-5);
      }

      .cls-11 {
        fill: url(#Degradado_sin_nombre_306);
      }

      .cls-12 {
        fill: url(#Degradado_sin_nombre_412);
      }
    </style>
    <linearGradient id="Degradado_sin_nombre_312" data-name="Degradado sin nombre 312" x1="928.9" y1="357.48" x2="512.9" y2="520.14" gradientUnits="userSpaceOnUse">
      <stop offset="0" stop-color="#7c7c7c"/>
      <stop offset="1" stop-color="#000"/>
    </linearGradient>
    <linearGradient id="Degradado_sin_nombre_306" data-name="Degradado sin nombre 306" x1="288.06" y1="111.72" x2="168.06" y2="751.72" gradientUnits="userSpaceOnUse">
      <stop offset="0" stop-color="#7c7c7c"/>
      <stop offset="1" stop-color="#000"/>
    </linearGradient>
    <linearGradient id="Degradado_sin_nombre_412" data-name="Degradado sin nombre 412" x1="411.25" y1="110.21" x2="573.42" y2="110.21" gradientUnits="userSpaceOnUse">
      <stop offset=".09" stop-color="#204887"/>
      <stop offset=".31" stop-color="#204887"/>
      <stop offset=".68" stop-color="#5fd3de"/>
      <stop offset="1" stop-color="#64dde4"/>
    </linearGradient>
    <linearGradient id="Degradado_sin_nombre_412-2" data-name="Degradado sin nombre 412" x1="213.32" y1="744" x2="694.85" y2="744" xlink:href="#Degradado_sin_nombre_412"/>
    <linearGradient id="Degradado_sin_nombre_412-3" data-name="Degradado sin nombre 412" x1="314.73" y1="744" x2="621" y2="744" xlink:href="#Degradado_sin_nombre_412"/>
    <linearGradient id="Degradado_sin_nombre_412-4" data-name="Degradado sin nombre 412" x1="399.39" y1="774.33" x2="656.75" y2="774.33" xlink:href="#Degradado_sin_nombre_412"/>
    <linearGradient id="Degradado_sin_nombre_412-5" data-name="Degradado sin nombre 412" x1="248.69" y1="325.53" x2="771.31" y2="325.53" xlink:href="#Degradado_sin_nombre_412"/>
    <linearGradient id="Degradado_sin_nombre_412-6" data-name="Degradado sin nombre 412" x1="314.73" y1="376.82" x2="556.72" y2="376.82" xlink:href="#Degradado_sin_nombre_412"/>
    <linearGradient id="Degradado_sin_nombre_412-7" data-name="Degradado sin nombre 412" x1="283.15" y1="279.24" x2="588.29" y2="279.24" xlink:href="#Degradado_sin_nombre_412"/>
    <linearGradient id="Degradado_sin_nombre_412-8" data-name="Degradado sin nombre 412" x1="448.61" y1="285.89" x2="698.23" y2="285.89" xlink:href="#Degradado_sin_nombre_412"/>
    <linearGradient id="Degradado_sin_nombre_412-9" data-name="Degradado sin nombre 412" x1="179.35" y1="523.14" x2="805.32" y2="523.14" xlink:href="#Degradado_sin_nombre_412"/>
    <linearGradient id="Degradado_sin_nombre_412-10" data-name="Degradado sin nombre 412" x1="213.32" y1="492.88" x2="332.58" y2="492.88" xlink:href="#Degradado_sin_nombre_412"/>
  </defs>
  <path class="cls-6" d="M581.86,110.21c42.14,14.41,81.25,33.07,117.83,58.51,170.36,118.46,221.21,352.18,101.68,526.11-52.95,77.05-146.96,156.08-235.6,187.43-5.85,2.07-12.15,4.51-18.23,5.35.22-1.14,1.46-1.75,2.29-2.42,14.42-11.4,33.9-22.22,49.46-32.91,64.57-44.39,123.39-83.37,172.17-146.18,137.78-177.43,82.65-424.33-105.58-538.76-26.51-16.11-54.82-29.48-84.02-39.97v-17.16Z"/>
  <path class="cls-11" d="M398.83,110.21c.84,6.82.67,12.84-.08,19.66-125.38,33.96-222.46,132.28-257.28,257.14-37.64,134.99-2.92,275.3,97.74,372.39,1.46,1.41,3.77.84,2.16,3.81l-10.24,11.13c-36.91-34.03-67.08-73.33-87.3-119.52-42.14-96.26-45.51-203.41-9.31-302.21,43-117.34,143.64-209.67,264.3-242.39Z"/>
  <g>
    <path class="cls-12" d="M541.96,156.9c10.59,1.53,20.91,4.27,31.46,5.86V55.93c0-.24-1.33-2.34-1.72-2.57h-158.74c-.39.23-1.72,2.33-1.72,2.57v111.12c41.75-13.15,87.32-16.43,130.71-10.15Z"/>
    <path class="cls-1" d="M671.9,720.73c-11.88,19.07-24.79,37.76-40.27,54.12-73.86,78.1-203.17,88.91-290.74,27.29-43.98-30.95-70.36-78.06-81.25-130.26l24.01-6.44-48.88-39.9-21.45,59.2,25.69-6.84c17.4,78.66,66.69,142.88,143.75,169.89,116.15,40.72,247.84-5.17,305.51-114.98,1.18-2.24,7.67-14.19,6.42-15.46l-22.79,3.38Z"/>
    <path class="cls-9" d="M610.95,711.47c-24.64,32.49-69.99,52.79-109.81,58.8-67.2,10.14-144.38-16.01-179.9-76.19-2.17-1.93-6.26.74-6.49,3.09-.33,3.29,6.24,16.55,8.15,20.16,53.29,100.95,211.67,98.7,283.19,18.01,2.34-2.64,14.7-18.18,14.91-20.3.22-2.23-7.97-3.77-10.04-3.58Z"/>
    <path class="cls-4" d="M405.93,803.07c-3.74-1.31-7.45,7.61-6.34,9.36,84.47,42.14,202.59,8.96,248.88-73.97,1.43-2.55,8.59-16.32,8.26-18.05-.72-3.87-15.43-2.08-18.69-1.82-7.09,10.13-12.66,21.31-20.63,30.85-30.33,36.28-90.51,57.48-136.85,59.65-25.28,1.19-49.68-3.14-74.63-6.02Z"/>
    <path class="cls-10" d="M265.91,333.53c45.05-94.88,145.77-149.92,250.16-144.67,89.5,4.5,170.85,67.58,192.54,154.98,6.65,26.8,8.14,54.32,7.78,81.88h-31.32c-.18,0-3.74.82-3,2.13l45.78,56.15,43.45-58.28h-31.75c.41-32.56-2.39-65.51-11.78-96.76-26.09-86.79-102.24-148.97-192.11-159.7-108.1-12.9-214.31,31.1-271.31,124.91-2.35,3.87-17.12,29.77-15.55,31.93,3.7.19,14.52,9.08,17.11,7.43Z"/>
    <path class="cls-2" d="M527.96,354.72c1.81-.36,2.71-1.78,3.9-2.96,8.59-8.61,17.12-19.73,24.87-29.19v-50.2c-27.8-3.97-58.2-3.81-85.66,3.15-4.67,1.18-17.51,3.99-18.21,9.25-.71,5.26-.65,33.71.62,38.08,2.6,4.14,22.11,32.14,24.08,32.64,1.15.29,2.2-.22,3.26-.51l1.13,1.17c-.36,9.71.12,22.03-1.79,31.43-.88,4.34-11.8,13.47-15.7,16.91-36.89,32.54-77.88,61.75-129.58,58.41-1.96-.13-20.08-3.56-20.14-2.17,2.5,7.58.1,19.13,9.4,21.49,11.54,2.93,34.66,1.57,46.56-.73,31.13-6.02,60.29-27.94,84.32-47.82,8.37-6.93,30.07-25.38,34.62-34.03,6.61-12.59,4.14-31.97,7.01-45.75l-13.64-.95-4.37-13.64,50.62-.85c-2.91,4.68-14.07,18.79-1.3,16.27Z"/>
    <path class="cls-8" d="M343.23,316.33c-2.4,4.08-13.94,25.17-12.03,28.43,4.84,1.76,6.32,6.39,11.43,2.72,5.02-3.6,10.37-15.27,14.32-20.86,20.01-28.32,41.93-53.01,71.14-72.16,45.9-30.09,103.5-41.63,157.36-28.78,9.6-6.47-7.69-12.4-13.07-14.41-102.38-38.39-247.05,18-285.73,123.13-1.46,3.97-4.94,11.66-2.83,15.28,1.23,2.11,11.38,10.95,13.78,9.44.89-.56,5.54-13.95,6.7-16.51,26-56.99,73.3-103.15,136.58-114.39l-35.1,21.09c-24.07,18.96-46.9,40.37-62.55,67.02Z"/>
    <path class="cls-7" d="M683.74,327.57c2.22,3.35,6.58,14.36,10.57,13.99,6.3-.57,3.36-8.69,2.31-12.29-26.59-91.25-150.51-120.2-229.72-83.78-6.83,3.14-18.28,7.92-18.29,16.45,41.06-14.25,88.39-14.66,130.58-4.88,43.01,9.97,80.1,33.62,104.54,70.5Z"/>
    <path class="cls-3" d="M777.87,571.62c-36.69-24.28-92.92-27.17-134.76-38.67-1.51,0-2.16-.07-3.4.95-2.71,2.22-10.37,15.85-13.47,19.99-3,3.99-8.31,12.41-13.36,13.3-7.08,1.24-10.06-4.81-8.38-11.03,1.66-6.15,13.63-18.95,17.45-25.45,1.28-2.19,3.51-4.84,2.63-7.41-.55-1.6-10.99-8.35-13.62-7.04-1.46.73-15.61,22.8-18.9,26.6-4.35,5.03-12.12,13.67-19.16,8.06-3.51-2.8-2.71-8.94-.89-12.66l25.13-30.73c.9-3.37-9.98-9.15-12.5-11.29-3.18-.49-30.55,39.01-42.27,41.55-9.52,2.06-14.85-4.06-10.21-12.78.78-1.46,2.95-3.91,4.13-5.31,9.77-11.64,23.52-21.8,33.4-33.61.66-2.49-10-11.92-13.16-11.44-12.59,9.83-22.71,23.37-34.79,33.94-5.85,5.11-20.7,17.15-27.48,7.73-4.86-6.76,3.64-14.09,8.14-18.49l39.96-35.59-10.91-10.6c-16.85,11.48-43.96,44.19-65.05,44.56-11.92.21-19.71-10.1-12.84-20.62,6.17-9.45,32.01-27.44,41.98-36.1,6.19-5.37,17.67-13.62,19.95-21.24.92-3.07,1.73-8.59,1.96-11.77,1.22-16.8-.91-34.97,0-51.91h-12.44c-1.22.75-1.18,1.71-1.33,2.96-1.76,15,1.74,33.2.05,48.96-.55,5.12-3.4,8.51-6.86,12.02-14.74,14.99-55.45,40.74-60.54,59.59-6.44,23.85,18.32,37.47,39.08,32.64-2.7,23.95,20.53,28.27,38.61,20.6-1.79,16.12,7.92,24.05,23.51,22.22,5.64-.66,10.5-3.92,15.96-5.06.76,18.59,19.39,23.68,34.32,16.31.88,10.59,8.86,19.48,20.05,18.8,11.36-.69,20.7-9.68,28.04-17.49,3.11-3.31,5.85-9.97,10.65-9.93,29.7,5.3,59.84,9.65,88.67,18.69,19,5.96,38.35,13.31,11.07,29.55-35.02,20.86-82.82,26.66-122.58,19.32-74.72-13.8-117.68-81.51-198.49-89.82-37.44-3.85-72.35,12.29-101.26-20.59-11.33-12.89-14.97-28.68-22.58-43.49-13.1-25.51-34.96-44.16-59.17-58.8,1.72-15.43,2.5-30.7,1.54-46.16.71-.75,8.38,2.87,9.7,3.59,21.03,11.51,18.32,32.53,29.41,50.39,28.95,46.62,100.03,48.29,133.34,5.63,15.58-19.95,7.59-29.37,9.43-50.64.26-3.04.77-9.51,4.8-6.46l27.86,33.98c3.58,1.61,9.66-6.86,12.45-9.03.66-1.45-12.16-15.92-14.16-18.5-8.87-11.48-18.35-32.61-35.81-24.59-18.21,8.36-4.78,42.24-13.84,59.1-16.18,30.14-67.67,34.95-93.23,13.98-16.97-13.93-14.61-27.11-24.64-43.14-14.4-23.03-37.79-39.08-65.91-37.49,3.84,18.15,6.62,36.65,5.14,55.33-.41,5.16-4.8,18.18-2.99,21.9.85,1.75,9.16,4.99,11.52,6.5,9.85,6.27,22.38,17.69,30.12,26.51,19.9,22.66,22.57,52.65,42.86,75.56,38.79,43.79,80.93,18.78,128.58,30.16,55.03,13.15,98.11,60.35,150.96,79.86,38.89,14.36,84.2,14.45,123.96,3.41,24.45-6.79,55.55-19.77,65.04-45.23,24.21,22.16-5.15,39.32-24.59,47.93-60.14,26.64-131.4,28.67-194.23,10.85-52.97-15.03-97.44-45.97-148.86-63.94-28.2-9.85-60.59-18.25-90.22-22.18-16.64-2.21-33.44-2.06-49.67-6.96-44.74-13.51-56.4-61.28-44.12-102.4-3.67-1.93-10.75-8.74-14.93-7.34l-1.34,1.27c-21.11,41.26-51.44,96.72-11.28,137.23,36.85,37.17,127.37,35.93,177.82,46.14,62.32,12.6,115.12,45.47,176.59,59.38,65.46,14.81,161.06,14.52,218.74-24.11,38.27-25.63,47.49-72.25,5.68-99.91ZM781.29,649.74c-43.54,47.13-161.41,45.46-219.41,33.19-73.29-15.51-132.32-55.91-207.31-70.7-38.21-7.54-101.16-8.38-131.75-31.29-18.86-14.13-26.76-38.7-21.63-61.67.3-1.34.66-4.73,2.17-5.11,2.6,12.4,7.04,24.69,14.05,35.29,29.41,44.45,86.9,36.81,132.86,45.62,68.91,13.21,125.52,54.93,192.23,74.63,78.17,23.09,174.33,18.88,243.48-26.83.58.61-4.01,6.13-4.7,6.87Z"/>
    <path class="cls-5" d="M244.8,467.51c17.73,25.56,15.71,54.35,43.64,74.78,8.64,6.32,30.53,16.31,41.05,15.66,3.4-.21,3.93-2.92,1.91-5-1.67-1.72-14.56-7.26-18.57-10.16-31.51-22.82-30.99-61.26-54.55-88.74-10-11.67-24.9-22.61-39.94-26.24l-5.01,14.99c12.81,4.63,23.76,13.59,31.49,24.72Z"/>
  </g>
</svg>